<svg xmlns="http://www.w3.org/2000/svg" width="24" height="24" viewBox="0 0 24 24" class="Icon TunerControl__Icon ThumbDownButton__Icon" role="img" fill="#fff"><path d="M14.374 14.047c-.33.558-1.407 2.353-1.649 2.965-.241.61-.22 1.221-.307 2.488-3.166-.023-2.265-3.145-1.956-3.982.307-.837.395-2.081.395-2.081s-1.825-.022-3.231-.068c-1.407-.045-1.737-1.9-1.363-2.511-.352-.363-.44-1.923.308-2.33-.11-.974.396-1.698.945-1.72-.11-.25.396-1.674.79-1.832C8.704 4.817 11.452 4.5 12 4.5c.55 0 2.726 1.2 2.924 1.244.197.045 2.066-.112 2.066-.112.967 1.38 1.099 4.253.967 5.293l-2.066.227c-.286.226-.725 1.561-1.517 2.896z" fill-rule="evenodd"></path></svg>