<svg xmlns="http://www.w3.org/2000/svg" width="24" height="24" viewBox="0 0 24 24" class="Icon TunerControl__Icon ThumbUpButton__Icon" role="img" fill="#fff"><path d="M8.11 12.848c.285-.226.724-1.561 1.516-2.896.33-.557 1.407-2.352 1.649-2.963.241-.611.22-1.222.307-2.489 3.166.022 2.265 3.145 1.956 3.982-.307.837-.395 2.081-.395 2.081s1.825.022 3.231.068c1.407.045 1.737 1.9 1.363 2.511.352.363.44 1.923-.308 2.33.11.974-.396 1.698-.945 1.72.11.25-.396 1.674-.79 1.832-.397.159-3.145.476-3.694.476-.55 0-2.726-1.2-2.924-1.244-.197-.045-2.066.112-2.066.112-.967-1.38-1.099-4.253-.967-5.293l2.066-.227z" fill-rule="evenodd"></path></svg>